<svg width="32" height="32" viewBox="0 0 32 32" fill="none" xmlns="http://www.w3.org/2000/svg">
<rect width="32" height="32" rx="8" fill="#D4F1DD"/>
<mask id="mask0_11_1959" style="mask-type:alpha" maskUnits="userSpaceOnUse" x="4" y="4" width="24" height="24">
<rect x="4" y="4" width="24" height="24" fill="#0085FF"/>
</mask>
<g mask="url(#mask0_11_1959)">
<path d="M7 24C6.45 24 5.97917 23.8042 5.5875 23.4125C5.19583 23.0208 5 22.55 5 22V11H7V22H24V24H7ZM11 20C10.45 20 9.97917 19.8042 9.5875 19.4125C9.19583 19.0208 9 18.55 9 18V10C9 9.45 9.19583 8.97917 9.5875 8.5875C9.97917 8.19583 10.45 8 11 8H25C25.55 8 26.0208 8.19583 26.4125 8.5875C26.8042 8.97917 27 9.45 27 10V18C27 18.55 26.8042 19.0208 26.4125 19.4125C26.0208 19.8042 25.55 20 25 20H11ZM13 18C13 17.45 12.8042 16.9792 12.4125 16.5875C12.0208 16.1958 11.55 16 11 16V18H13ZM23 18H25V16C24.45 16 23.9792 16.1958 23.5875 16.5875C23.1958 16.9792 23 17.45 23 18ZM18 17C18.8333 17 19.5417 16.7083 20.125 16.125C20.7083 15.5417 21 14.8333 21 14C21 13.1667 20.7083 12.4583 20.125 11.875C19.5417 11.2917 18.8333 11 18 11C17.1667 11 16.4583 11.2917 15.875 11.875C15.2917 12.4583 15 13.1667 15 14C15 14.8333 15.2917 15.5417 15.875 16.125C16.4583 16.7083 17.1667 17 18 17ZM11 12C11.55 12 12.0208 11.8042 12.4125 11.4125C12.8042 11.0208 13 10.55 13 10H11V12ZM25 12V10H23C23 10.55 23.1958 11.0208 23.5875 11.4125C23.9792 11.8042 24.45 12 25 12Z" fill="#1B7A37"/>
</g>
</svg>
